<svg id="Layer_1" height="512" viewBox="0 0 256 256" width="512" xmlns="http://www.w3.org/2000/svg"><g><path d="m28.222 87.134v135.799c0 9.188 7.448 16.636 16.636 16.636h145.537c9.188 0 16.636-7.448 16.636-16.636v-148.42l-58.082-58.083h-104.09c-9.188 0-16.636 7.448-16.636 16.636v39.299 14.769z" fill="#f6e2c6"/><path d="m190.396 241.07h-145.537c-10 0-18.137-8.136-18.137-18.137v-135.799c0-.829.671-1.5 1.5-1.5s1.5.671 1.5 1.5v135.799c0 8.346 6.791 15.137 15.137 15.137h145.537c8.346 0 15.136-6.79 15.136-15.136v-147.8l-57.204-57.204h-103.469c-8.346 0-15.137 6.79-15.137 15.137v39.299c0 .829-.671 1.5-1.5 1.5s-1.5-.671-1.5-1.5v-39.3c0-10 8.136-18.137 18.137-18.137h104.09c.398 0 .779.158 1.061.439l58.083 58.083c.281.281.439.663.439 1.061v148.421c0 10.002-8.136 18.137-18.136 18.137z" fill="#3a312a"/><path d="m190.533 76.16v146.77c0 8.35-6.79 15.14-15.14 15.14h15c8.35 0 15.14-6.79 15.14-15.14v-146.77z" fill="#decaad"/><path d="m226.278 26.131s3.408 12.659 13.222 13.246c0 0-13.1 4.525-13.321 14.202 0 0-2.578-13.572-12.925-14.059 0 .001 12.05-1.825 13.024-13.389z" fill="#d7e057"/><path d="m226.178 55.079c-.713 0-1.335-.506-1.472-1.217-.024-.124-2.495-12.417-11.522-12.842-.771-.037-1.388-.651-1.428-1.421-.04-.771.511-1.445 1.273-1.56.441-.069 10.895-1.817 11.755-12.033.061-.725.634-1.301 1.359-1.367.724-.061 1.392.398 1.583 1.102.032.116 3.259 11.626 11.864 12.141.714.043 1.297.584 1.396 1.292.098.708-.319 1.388-.994 1.622-.121.042-12.118 4.311-12.313 12.819-.018.767-.61 1.396-1.374 1.459-.043.003-.086.005-.127.005zm-7.742-15.73c3.878 1.969 6.231 5.746 7.587 8.877 2.027-4.021 5.942-6.787 8.949-8.427-4.135-1.842-6.783-5.651-8.334-8.723-1.792 4.36-5.271 6.869-8.202 8.273z" fill="#3a312a"/><path d="m204.579 43.111s2.411 8.954 9.352 9.369c0 0-9.266 3.201-9.422 10.045 0 0-1.824-9.6-9.142-9.944 0 .001 8.524-1.29 9.212-9.47z" fill="#d7e057"/><path d="m204.508 64.026c-.713 0-1.337-.507-1.472-1.22-.016-.082-1.704-8.442-7.739-8.726-.771-.037-1.388-.651-1.428-1.421-.04-.771.511-1.445 1.273-1.561.296-.047 7.364-1.243 7.942-8.114.061-.726.635-1.303 1.36-1.368.732-.066 1.392.399 1.582 1.102.021.079 2.228 7.92 7.994 8.265.714.043 1.299.585 1.396 1.294.098.709-.32 1.388-.996 1.622-.081.028-8.282 2.952-8.412 8.662-.018.767-.611 1.397-1.376 1.461-.041.003-.083.004-.124.004zm-4.519-11.527c2.107 1.333 3.523 3.395 4.447 5.28 1.376-2.232 3.515-3.872 5.365-4.972-2.287-1.27-3.884-3.35-4.941-5.224-1.174 2.286-3.015 3.875-4.871 4.916z" fill="#3a312a"/><path d="m204.579 16.454s2.411 8.954 9.352 9.37c0 0-9.266 3.201-9.422 10.045 0 0-1.824-9.6-9.142-9.944 0 0 8.524-1.292 9.212-9.471z" fill="#d7e057"/><path d="m204.508 37.369c-.713 0-1.337-.507-1.472-1.22-.016-.081-1.704-8.442-7.739-8.726-.771-.037-1.388-.651-1.428-1.421-.04-.771.511-1.445 1.273-1.56.296-.047 7.364-1.243 7.942-8.114.061-.726.635-1.303 1.36-1.368.732-.068 1.392.399 1.582 1.102.021.079 2.228 7.92 7.994 8.265.714.043 1.299.584 1.396 1.293.098.709-.32 1.388-.996 1.622-.081.028-8.282 2.952-8.412 8.662-.018.767-.611 1.397-1.376 1.461-.041.003-.083.004-.124.004zm-4.519-11.528c2.107 1.333 3.523 3.395 4.447 5.28 1.376-2.232 3.515-3.872 5.365-4.972-2.287-1.269-3.884-3.35-4.941-5.224-1.174 2.286-3.015 3.875-4.871 4.916z" fill="#3a312a"/><path d="m59.947 212.25h78.563c4.413 0 7.99-3.577 7.99-7.99v-34.52c0-4.413-3.577-7.99-7.99-7.99h-114.02c-4.413 0-7.99 3.577-7.99 7.99v34.52c0 4.413 3.577 7.99 7.99 7.99h21.137z" fill="#d7e057"/><path d="m138.51 213.75h-78.563c-.829 0-1.5-.671-1.5-1.5s.671-1.5 1.5-1.5h78.563c3.579 0 6.49-2.912 6.49-6.49v-34.52c0-3.579-2.912-6.49-6.49-6.49h-114.02c-3.579 0-6.49 2.912-6.49 6.49v34.52c0 3.579 2.912 6.49 6.49 6.49h21.137c.829 0 1.5.671 1.5 1.5s-.671 1.5-1.5 1.5h-21.137c-5.233 0-9.49-4.257-9.49-9.49v-34.52c0-5.233 4.257-9.49 9.49-9.49h114.02c5.233 0 9.49 4.257 9.49 9.49v34.52c0 5.233-4.257 9.49-9.49 9.49z" fill="#3a312a"/><g fill="#3b332b"><path d="m61.829 202.003h-4.155c-3.691 0-6.693-3.002-6.693-6.693 0-.829.671-1.5 1.5-1.5s1.5.671 1.5 1.5c0 2.037 1.657 3.693 3.693 3.693h4.155c2.037 0 3.693-1.657 3.693-3.693v-6.232c0-2.037-1.657-3.694-3.693-3.694h-4.155c-3.691 0-6.693-3.003-6.693-6.693s3.002-6.693 6.693-6.693h4.155c3.691 0 6.693 3.002 6.693 6.693 0 .829-.671 1.5-1.5 1.5s-1.5-.671-1.5-1.5c0-2.037-1.657-3.693-3.693-3.693h-4.155c-2.037 0-3.693 1.657-3.693 3.693 0 2.037 1.657 3.693 3.693 3.693h4.155c3.691 0 6.693 3.003 6.693 6.694v6.232c0 3.691-3.002 6.693-6.693 6.693z"/><path d="m74.204 202.003c-.829 0-1.5-.671-1.5-1.5v-27.006c0-.829.671-1.5 1.5-1.5s1.5.671 1.5 1.5v25.42c6.487-.746 11.542-6.272 11.542-12.956v-12.464c0-.829.671-1.5 1.5-1.5s1.5.671 1.5 1.5v12.464c-.001 8.846-7.197 16.042-16.042 16.042z"/><path d="m105.326 202.003h-4.155c-3.691 0-6.693-3.002-6.693-6.693v-16.62c0-3.691 3.003-6.693 6.693-6.693h4.155c3.691 0 6.693 3.002 6.693 6.693 0 .829-.671 1.5-1.5 1.5s-1.5-.671-1.5-1.5c0-2.037-1.657-3.693-3.693-3.693h-4.155c-2.037 0-3.693 1.657-3.693 3.693v16.619c0 2.037 1.657 3.693 3.693 3.693h4.155c2.037 0 3.693-1.657 3.693-3.693v-3.693h-3.693c-.829 0-1.5-.671-1.5-1.5s.671-1.5 1.5-1.5h5.193c.829 0 1.5.671 1.5 1.5v5.193c0 3.692-3.002 6.694-6.693 6.694z"/></g><path d="m166.127 131.25c-.829 0-1.5-.671-1.5-1.5 0-25.916-21.084-47-47-47s-47 21.084-47 47c0 .829-.671 1.5-1.5 1.5s-1.5-.671-1.5-1.5c0-27.57 22.43-50 50-50s50 22.43 50 50c0 .829-.671 1.5-1.5 1.5z" fill="#3a312a"/><path d="m168.689 82.75h-102.125c-.829 0-1.5-.671-1.5-1.5s.671-1.5 1.5-1.5h102.125c.829 0 1.5.671 1.5 1.5s-.671 1.5-1.5 1.5z" fill="#3a312a"/><circle cx="69.127" cy="129.75" fill="#ef6d7a" r="11.237"/><path d="m69.127 142.487c-7.023 0-12.737-5.714-12.737-12.737s5.714-12.737 12.737-12.737 12.737 5.714 12.737 12.737-5.714 12.737-12.737 12.737zm0-22.474c-5.369 0-9.737 4.368-9.737 9.737s4.368 9.737 9.737 9.737 9.737-4.368 9.737-9.737-4.368-9.737-9.737-9.737z" fill="#3a312a"/><circle cx="69.127" cy="129.75" fill="#ef6d7a" r="11.237"/><path d="m69.127 142.487c-7.023 0-12.737-5.714-12.737-12.737s5.714-12.737 12.737-12.737 12.737 5.714 12.737 12.737-5.714 12.737-12.737 12.737zm0-22.474c-5.369 0-9.737 4.368-9.737 9.737s4.368 9.737 9.737 9.737 9.737-4.368 9.737-9.737-4.368-9.737-9.737-9.737z" fill="#3a312a"/><g><circle cx="69.127" cy="81.25" fill="#89c4db" r="11.237"/></g><path d="m69.127 93.987c-7.023 0-12.737-5.714-12.737-12.737s5.714-12.737 12.737-12.737 12.737 5.714 12.737 12.737-5.714 12.737-12.737 12.737zm0-22.474c-5.369 0-9.737 4.368-9.737 9.737s4.368 9.737 9.737 9.737 9.737-4.368 9.737-9.737-4.368-9.737-9.737-9.737z" fill="#3a312a"/><g><circle cx="166.127" cy="81.25" fill="#89c4db" r="11.237"/></g><path d="m166.127 93.987c-7.023 0-12.737-5.714-12.737-12.737s5.714-12.737 12.737-12.737 12.737 5.714 12.737 12.737-5.714 12.737-12.737 12.737zm0-22.474c-5.369 0-9.737 4.368-9.737 9.737s4.368 9.737 9.737 9.737 9.737-4.368 9.737-9.737-4.368-9.737-9.737-9.737z" fill="#3a312a"/><circle cx="166.127" cy="129.75" fill="#ef6d7a" r="11.237"/><path d="m166.127 142.487c-7.023 0-12.737-5.714-12.737-12.737s5.714-12.737 12.737-12.737 12.737 5.714 12.737 12.737-5.714 12.737-12.737 12.737zm0-22.474c-5.369 0-9.737 4.368-9.737 9.737s4.368 9.737 9.737 9.737 9.737-4.368 9.737-9.737-4.368-9.737-9.737-9.737z" fill="#3a312a"/><g><path d="m124.953 70.013h-14.653c-2.173 0-3.934 1.761-3.934 3.934v14.653c0 2.173 1.761 3.934 3.934 3.934h14.653c2.173 0 3.934-1.761 3.934-3.934v-14.653c0-2.173-1.761-3.934-3.934-3.934z" fill="#89c4db"/></g><path d="m124.953 94.034h-14.652c-2.997 0-5.434-2.438-5.434-5.434v-14.653c0-2.997 2.438-5.434 5.434-5.434h14.652c2.997 0 5.435 2.438 5.435 5.434v14.653c0 2.996-2.438 5.434-5.435 5.434zm-14.652-22.521c-1.342 0-2.434 1.092-2.434 2.434v14.653c0 1.342 1.092 2.434 2.434 2.434h14.652c1.342 0 2.435-1.092 2.435-2.434v-14.653c0-1.342-1.092-2.434-2.435-2.434z" fill="#3a312a"/><path d="m207.032 74.513v.144h-44.105c-7.654 0-13.858-6.204-13.858-13.858v-44.249z" fill="#87796f"/><path d="m207.032 76.157h-44.105c-8.468 0-15.358-6.89-15.358-15.358v-44.249c0-.606.365-1.154.926-1.386.561-.234 1.207-.104 1.635.325l57.963 57.963c.281.281.439.663.439 1.061v.144c0 .829-.671 1.5-1.5 1.5zm-56.463-55.986v40.628c0 6.814 5.544 12.358 12.358 12.358h40.628z" fill="#3a312a"/></g></svg>