<?xml version="1.0" standalone="no"?>
<!DOCTYPE svg PUBLIC "-//W3C//DTD SVG 20010904//EN"
 "http://www.w3.org/TR/2001/REC-SVG-20010904/DTD/svg10.dtd">
<svg version="1.0" xmlns="http://www.w3.org/2000/svg"
 width="600.800000pt" height="400.000000pt" viewBox="0 0 600.800000 400.000000"
 preserveAspectRatio="xMidYMid meet">
<metadata>
Created by potrace 1.13, written by Peter Selinger 2001-2015
</metadata>
<g transform="translate(0.000000,400.000000) scale(0.080000,-0.080000)"
fill="#000000" stroke="none">
<path d="M2948 3459 c-757 -43 -1378 -382 -1493 -815 -19 -71 -21 -211 -4
-279 116 -476 830 -835 1659 -835 491 0 931 120 1271 345 122 82 146 109 53
62 -148 -74 -370 -137 -617 -175 -164 -24 -637 -24 -797 1 -527 83 -920 291
-1041 552 -59 126 -55 253 9 382 37 73 118 165 126 143 4 -13 56 -208 157
-600 17 -63 32 -123 35 -133 5 -15 15 -17 72 -15 l67 3 95 332 c52 183 98 334
101 337 3 3 48 -146 100 -332 l94 -337 67 -3 c66 -3 67 -2 74 25 4 15 58 211
119 436 l111 407 -75 0 -76 0 -74 -326 c-41 -179 -78 -327 -81 -329 -3 -2 -47
143 -97 323 l-90 327 -73 0 -73 0 -91 -327 c-50 -180 -94 -324 -97 -320 -4 4
-40 150 -80 324 -72 311 -73 318 -54 332 42 31 215 116 305 149 545 202 1310
189 1825 -31 60 -26 114 -49 120 -51 23 -9 -56 50 -135 101 -280 182 -674 304
-1038 323 -59 3 -136 7 -172 9 -36 1 -127 -1 -202 -5z"/>
<path d="M4625 2907 c-91 -31 -142 -66 -198 -140 -57 -75 -80 -165 -75 -290 6
-139 31 -202 112 -283 81 -80 147 -107 266 -108 93 0 155 22 200 70 13 13 27
24 30 24 4 0 10 -18 14 -40 l6 -40 55 0 55 0 0 215 0 215 -165 0 -165 0 0 -65
0 -65 86 0 87 0 -6 -37 c-19 -116 -170 -177 -288 -117 -136 69 -164 352 -45
470 94 95 247 78 301 -34 l20 -42 82 0 83 0 -7 33 c-9 49 -53 125 -92 159 -62
55 -136 82 -231 85 -52 2 -101 -2 -125 -10z"/>
<path d="M5210 2500 l0 -400 280 0 280 0 0 70 0 70 -192 2 -193 3 -3 328 -2
327 -85 0 -85 0 0 -400z"/>
<path d="M3740 2485 l0 -395 50 0 c47 0 50 2 50 26 l0 25 37 -28 c52 -40 157
-45 227 -12 92 43 145 149 146 290 0 99 -17 159 -61 212 -77 93 -223 113 -307
42 -17 -14 -33 -25 -36 -25 -3 0 -6 59 -6 130 l0 130 -50 0 -50 0 0 -395z
m338 78 c77 -57 82 -270 8 -351 -27 -28 -41 -35 -82 -39 -62 -6 -109 23 -141
87 -54 106 -10 289 77 323 29 12 111 0 138 -20z"/>
<path d="M3310 2675 c-108 -34 -171 -131 -178 -275 -6 -122 14 -187 77 -250
56 -56 95 -70 194 -70 79 0 128 18 176 63 32 31 70 98 71 125 0 8 -17 12 -52
12 -50 0 -54 -3 -68 -32 -24 -52 -63 -73 -130 -73 -84 0 -136 45 -155 132 l-6
33 208 2 208 3 -2 63 c-2 91 -27 156 -82 212 -66 69 -155 87 -261 55z m160
-103 c38 -19 67 -62 72 -107 l3 -30 -144 -3 c-80 -1 -148 1 -152 5 -10 10 14
79 36 103 44 49 124 63 185 32z"/>
<path d="M5860 2190 c0 -5 7 -10 15 -10 11 0 15 -11 15 -40 0 -22 5 -40 10
-40 6 0 10 18 10 40 0 29 4 40 15 40 8 0 15 5 15 10 0 6 -18 10 -40 10 -22 0
-40 -4 -40 -10z"/>
<path d="M5960 2150 c0 -56 17 -68 23 -17 l3 32 13 -32 c7 -18 16 -33 21 -33
4 0 12 15 18 33 l10 32 1 -33 c2 -52 26 -34 26 19 0 34 -4 44 -18 47 -10 2
-20 -4 -23 -15 -15 -46 -17 -47 -26 -15 -6 22 -15 32 -28 32 -17 0 -20 -7 -20
-50z"/>
</g>
</svg>
