<?xml version="1.0" encoding="utf-8"?>
<!DOCTYPE svg PUBLIC "-//W3C//DTD SVG 20010904//EN" "http://www.w3.org/TR/2001/REC-SVG-20010904/DTD/svg10.dtd">
<svg version="1.0" xmlns="http://www.w3.org/2000/svg" width="602pt" height="450pt" viewBox="0 0 602 450" style="" preserveAspectRatio="xMidYMid meet">
<g fill="#FFFFFFFF" stroke="#FFFFFFFF">
<path d="M 1.000 225.008 L 1.000 449.015 294.595 448.971 L 588.191 448.927 590.730 445.909 C 592.247 444.106 594.120 442.958 595.384 443.057 C 596.548 443.147 597.319 443.172 597.097 443.111 C 596.875 443.050 597.663 442.160 598.847 441.133 L 601.000 439.265 601.000 220.133 L 601.000 1.000 301.000 1.000 L 1.000 1.000 1.000 225.008 M 215.249 167.583 C 215.661 170.287 215.734 174.188 215.411 176.250 C 214.510 182.004 216.445 180.783 219.889 173.423 C 222.131 168.632 223.427 166.936 224.661 167.173 C 227.068 167.637 227.732 171.083 228.529 187.249 C 228.916 195.087 229.304 201.587 229.393 201.694 C 230.029 202.458 245.350 197.422 252.201 194.197 C 259.979 190.536 260.655 189.976 261.543 186.451 C 262.731 181.736 265.386 180.314 264.684 184.769 C 264.266 187.418 264.456 187.696 266.356 187.222 C 268.383 186.715 268.410 186.790 266.849 188.593 C 264.054 191.823 263.011 197.968 263.006 211.250 C 263.000 224.515 262.822 224.993 258.684 222.890 C 255.688 221.367 248.057 212.843 248.041 211.000 C 248.034 210.175 250.529 206.575 253.587 203.000 C 262.221 192.905 262.201 192.493 253.279 196.639 C 249.000 198.626 241.790 201.209 237.255 202.376 L 229.011 204.500 229.005 229.250 L 229.000 254.000 226.514 254.000 C 224.476 254.000 223.477 252.906 220.958 247.918 C 216.962 240.001 217.609 238.293 222.008 245.145 L 225.447 250.500 226.135 242.500 C 227.061 231.749 227.025 211.000 226.081 211.000 C 225.664 211.000 222.587 214.488 219.241 218.750 C 211.233 228.955 206.262 234.368 202.056 237.464 C 198.608 240.003 194.000 240.881 194.000 239.000 C 194.000 238.450 194.919 238.000 196.043 238.000 C 199.888 238.000 215.103 221.376 222.954 208.598 L 225.351 204.695 219.383 207.877 C 216.100 209.626 211.409 213.055 208.957 215.496 C 206.506 217.937 203.675 219.949 202.667 219.967 C 200.002 220.015 200.013 219.997 211.585 205.538 C 216.625 199.240 219.440 195.000 218.580 195.000 C 218.222 195.000 216.933 195.628 215.715 196.396 C 212.416 198.475 209.677 199.065 208.053 198.047 C 206.843 197.287 206.948 196.842 208.700 195.319 C 210.418 193.826 210.978 191.619 211.828 183.000 C 212.397 177.225 212.682 170.104 212.460 167.176 C 211.936 160.243 214.180 160.571 215.249 167.583 M 327.500 168.701 C 327.500 169.891 318.992 176.591 315.408 178.224 L 312.998 179.322 315.413 183.441 C 316.741 185.707 318.127 189.158 318.493 191.109 L 319.158 194.657 325.330 193.497 C 328.724 192.859 332.481 191.813 333.678 191.172 C 336.547 189.637 339.000 190.672 339.000 193.419 C 339.000 196.099 335.640 203.346 332.387 207.683 C 331.074 209.434 329.992 211.459 329.983 212.183 C 329.942 215.369 322.809 230.742 319.657 234.436 C 316.342 238.322 316.112 238.424 314.381 236.750 C 312.639 235.065 312.653 235.000 314.765 235.000 C 316.318 235.000 317.556 233.831 319.000 231.000 C 320.122 228.800 320.649 227.000 320.170 227.000 C 319.691 227.000 319.025 222.163 318.690 216.250 C 317.874 201.846 315.633 190.050 312.544 183.900 C 309.662 178.162 309.620 178.000 311.021 178.000 C 311.583 178.000 313.913 176.763 316.198 175.250 C 320.506 172.399 320.421 172.051 315.750 173.414 C 312.241 174.438 308.000 173.394 308.000 171.506 C 308.000 170.463 308.780 170.192 310.750 170.549 C 312.263 170.824 316.200 170.181 319.500 169.121 C 325.816 167.091 327.500 167.002 327.500 168.701 M 388.845 190.759 C 389.895 194.071 390.677 195.000 392.411 195.000 C 396.710 195.000 406.526 192.830 408.778 191.382 C 410.031 190.576 411.474 190.175 411.985 190.490 C 413.296 191.301 412.132 193.823 410.158 194.450 C 408.866 194.860 408.517 196.185 408.579 200.452 L 408.658 205.928 411.079 204.274 C 412.411 203.365 413.860 202.031 414.300 201.310 C 415.251 199.752 418.000 199.553 418.000 201.044 C 418.000 202.379 414.258 206.172 410.892 208.250 C 409.235 209.273 408.077 211.071 407.716 213.180 C 406.076 222.748 404.087 235.007 403.548 238.868 L 402.939 243.235 408.403 237.368 C 414.670 230.638 418.971 227.746 420.919 228.950 C 421.822 229.508 422.288 232.289 422.374 237.636 C 422.476 244.016 422.217 245.500 421.000 245.500 C 419.848 245.500 419.384 243.795 419.000 238.158 L 418.500 230.815 411.250 238.301 C 407.263 242.418 404.000 246.510 404.000 247.393 C 404.000 248.277 403.663 248.900 403.250 248.778 C 402.838 248.655 401.244 249.394 399.709 250.419 C 395.195 253.434 392.628 251.554 390.721 243.837 C 388.423 234.533 387.535 226.000 388.866 226.000 C 389.469 226.000 390.170 227.013 390.425 228.250 C 393.330 242.359 394.273 245.990 395.447 247.596 C 396.762 249.394 396.902 249.399 398.775 247.704 C 400.346 246.282 400.867 244.022 401.423 236.217 C 401.804 230.873 402.774 223.621 403.578 220.103 C 404.382 216.585 404.855 213.521 404.629 213.295 C 404.403 213.069 402.031 214.215 399.359 215.840 C 388.279 222.580 378.183 223.837 382.015 218.000 C 382.873 216.694 383.121 216.688 383.935 217.954 C 384.665 219.089 385.377 219.171 387.185 218.328 C 388.458 217.735 390.655 216.790 392.066 216.230 C 393.477 215.669 397.130 213.612 400.184 211.659 C 405.583 208.205 405.750 207.962 406.258 202.804 C 406.546 199.887 406.603 197.311 406.387 197.079 C 406.170 196.848 404.952 197.636 403.682 198.829 C 400.569 201.753 398.010 201.768 400.595 198.847 L 402.500 196.695 399.125 197.347 C 397.269 197.706 394.231 198.000 392.375 198.000 C 389.033 198.000 389.000 198.044 389.000 202.583 C 389.000 205.803 388.628 207.044 387.750 206.754 C 386.944 206.489 386.304 203.351 385.947 197.921 C 385.643 193.289 385.015 188.667 384.551 187.649 C 383.873 186.159 384.079 185.868 385.604 186.157 C 386.820 186.388 387.982 188.038 388.845 190.759 M 280.409 171.369 C 282.256 175.422 284.234 179.027 284.805 179.380 C 285.422 179.761 286.991 176.771 288.672 172.013 C 290.227 167.609 291.950 164.173 292.500 164.378 C 293.050 164.583 293.332 165.369 293.126 166.125 C 292.920 166.881 292.345 169.235 291.847 171.355 C 291.350 173.475 290.269 176.513 289.446 178.105 C 288.136 180.638 288.132 181.000 289.418 181.000 C 291.964 181.000 294.000 176.814 294.000 171.577 C 294.000 167.916 294.295 166.895 295.115 167.715 C 295.729 168.329 296.231 171.210 296.231 174.118 C 296.231 178.607 295.828 179.751 293.560 181.702 C 292.090 182.966 289.991 184.000 288.893 184.000 C 287.068 184.000 284.000 188.963 284.000 191.916 C 284.000 193.268 290.277 191.052 291.300 189.339 C 291.740 188.603 292.981 188.000 294.058 188.000 C 295.845 188.000 295.960 188.485 295.371 193.500 C 294.964 196.964 295.099 199.000 295.735 199.000 C 296.291 199.000 298.612 196.975 300.893 194.500 C 303.175 192.025 305.257 190.000 305.521 190.000 C 307.074 190.000 305.392 193.043 301.137 197.936 L 296.273 203.528 295.658 216.514 C 295.319 223.656 295.033 233.213 295.021 237.750 C 295.004 244.319 294.702 246.000 293.535 246.000 C 291.819 246.000 289.542 242.329 290.948 241.831 C 291.461 241.649 292.192 233.400 292.572 223.500 L 293.263 205.500 291.131 207.405 C 289.884 208.520 289.000 210.513 289.000 212.210 C 289.000 213.805 288.073 217.223 286.940 219.805 C 283.027 228.726 278.693 237.010 277.362 238.115 C 275.828 239.387 273.000 238.615 273.000 236.924 C 273.000 236.298 273.601 236.017 274.336 236.299 C 275.808 236.864 281.832 225.707 284.953 216.636 L 286.772 211.349 282.402 212.788 C 276.853 214.615 274.766 213.883 275.183 210.256 C 275.357 208.740 275.950 207.712 276.500 207.970 C 277.050 208.229 277.368 209.017 277.206 209.720 C 276.642 212.177 280.536 210.968 286.772 206.750 C 292.924 202.589 293.052 202.412 292.843 198.294 L 292.631 194.089 288.527 194.651 C 282.724 195.447 281.296 193.584 283.012 187.457 C 284.182 183.280 284.118 182.754 282.191 180.704 C 279.926 178.293 275.000 167.858 275.000 165.471 C 275.000 162.020 277.282 164.508 280.409 171.369 M 372.000 183.529 C 372.000 184.284 371.435 185.260 370.745 185.700 C 369.372 186.575 369.547 200.000 370.932 200.000 C 372.050 200.000 379.000 193.067 379.000 191.952 C 379.000 191.428 379.450 191.000 380.000 191.000 C 381.825 191.000 381.033 194.459 378.545 197.352 C 377.073 199.063 375.842 202.063 375.467 204.852 C 374.686 210.656 371.399 220.886 369.515 223.375 C 367.518 226.015 365.000 224.736 365.000 221.081 C 365.000 219.440 365.494 215.795 366.098 212.980 C 366.701 210.165 366.953 207.620 366.657 207.323 C 366.361 207.027 363.320 208.183 359.899 209.892 C 349.459 215.109 342.818 213.188 349.641 206.924 L 352.282 204.500 351.622 207.250 C 351.259 208.763 351.225 210.000 351.546 210.000 C 351.868 210.000 355.438 208.472 359.479 206.605 L 366.828 203.210 367.164 196.103 C 367.483 189.349 366.901 187.210 365.638 190.500 C 364.995 192.177 363.000 192.555 363.000 191.000 C 363.000 190.450 363.866 189.134 364.925 188.075 C 366.825 186.175 366.795 186.141 362.675 185.462 C 358.452 184.766 355.697 183.303 356.412 182.137 C 356.627 181.787 360.222 181.648 364.401 181.829 C 370.012 182.072 372.000 182.517 372.000 183.529 M 200.285 182.750 C 197.475 200.398 193.291 214.350 189.533 218.596 C 185.904 222.697 183.244 222.119 184.961 217.602 C 185.533 216.099 186.000 213.118 186.000 210.976 L 186.000 207.083 181.105 209.541 C 176.292 211.959 172.000 212.751 172.000 211.223 C 172.000 210.106 184.080 205.000 186.721 205.000 C 188.382 205.000 189.164 205.821 189.816 208.250 C 190.670 211.424 190.750 211.312 193.235 203.500 C 194.635 199.100 196.550 192.013 197.490 187.750 C 198.431 183.488 199.543 180.000 199.962 180.000 C 200.380 180.000 200.526 181.238 200.285 182.750 M 393.500 172.000 C 395.066 175.029 399.144 176.194 400.500 174.000 C 401.179 172.901 405.000 172.606 405.000 173.653 C 405.000 174.013 402.863 176.680 400.250 179.581 C 397.638 182.482 394.529 186.125 393.341 187.677 C 389.538 192.649 389.557 189.228 393.362 183.792 C 396.878 178.769 396.944 178.524 394.973 177.794 C 392.071 176.721 389.051 169.000 391.533 169.000 C 391.762 169.000 392.647 170.350 393.500 172.000 M 338.743 224.250 C 339.893 225.488 342.403 228.843 344.321 231.707 C 347.160 235.948 347.558 237.122 346.465 238.029 C 345.412 238.903 344.540 238.212 342.417 234.821 C 340.929 232.445 338.436 228.588 336.876 226.250 C 333.808 221.650 335.070 220.298 338.743 224.250 M 387.791 174.484 C 388.382 178.876 388.690 182.644 388.476 182.858 C 388.261 183.072 387.461 183.007 386.698 182.714 C 385.231 182.151 383.452 167.696 384.617 165.811 C 385.773 163.940 386.721 166.529 387.791 174.484 M 304.393 210.920 C 305.984 211.969 307.856 212.609 308.553 212.341 C 310.190 211.713 311.529 215.871 310.137 217.263 C 309.387 218.013 307.691 217.247 304.373 214.663 C 301.787 212.648 299.071 211.000 298.336 211.000 C 297.601 211.000 297.000 210.550 297.000 210.000 C 297.000 208.348 301.303 208.883 304.393 210.920 M 399.000 161.400 C 399.000 163.458 389.801 165.499 387.083 164.045 C 384.852 162.850 384.150 160.460 386.269 161.273 C 386.967 161.541 389.330 161.416 391.519 160.995 C 397.667 159.814 399.000 159.886 399.000 161.400 M 222.000 156.961 C 222.000 159.340 211.445 160.844 207.934 158.965 C 204.539 157.148 205.843 156.322 211.385 156.782 C 214.346 157.028 217.599 156.764 218.613 156.197 C 220.509 155.136 222.000 155.472 222.000 156.961 M 184.872 190.105 C 187.087 190.877 188.422 190.895 189.304 190.162 C 191.005 188.751 193.454 190.375 192.677 192.399 C 191.475 195.533 181.000 193.330 181.000 189.943 C 181.000 188.765 181.030 188.766 184.872 190.105 "/></g>
<g fill="#000000FF" stroke="#000000FF">
<path d="M 311.788 178.545 C 311.402 178.932 311.932 180.906 312.966 182.934 C 316.127 189.130 317.997 198.315 318.892 212.041 C 319.363 219.249 320.231 225.631 320.822 226.222 C 322.062 227.462 320.126 231.874 316.947 235.053 C 315.876 236.124 315.427 237.000 315.949 237.000 C 318.388 237.000 324.925 225.165 329.065 213.257 C 330.067 210.373 331.994 206.548 333.346 204.757 C 336.307 200.835 338.726 193.302 337.418 192.075 C 336.899 191.589 334.109 192.009 331.000 193.041 C 327.975 194.046 323.863 194.897 321.861 194.934 C 318.438 194.996 318.181 194.780 317.526 191.285 C 317.142 189.241 316.081 186.204 315.168 184.535 C 314.254 182.866 313.278 180.677 312.999 179.671 C 312.719 178.666 312.175 178.159 311.788 178.545 "/></g>
<g fill="#000000FF" stroke="#000000FF">
<path d="M 262.750 184.390 C 262.338 185.365 261.999 187.139 261.998 188.332 C 261.997 190.056 260.411 191.244 254.248 194.134 C 245.426 198.272 239.275 200.511 233.500 201.686 L 229.500 202.500 233.500 202.200 C 237.978 201.863 249.774 198.174 250.590 196.855 C 250.880 196.385 251.936 196.000 252.937 196.000 C 253.937 196.000 255.315 195.325 256.000 194.500 C 257.208 193.044 262.000 192.355 262.000 193.637 C 262.000 193.988 259.469 197.239 256.376 200.863 C 248.144 210.505 248.010 211.026 252.423 216.181 C 255.981 220.338 259.402 222.891 261.512 222.965 C 262.134 222.986 262.547 218.659 262.584 211.750 C 262.671 195.552 263.118 191.766 265.215 189.500 C 266.502 188.109 266.598 187.749 265.528 188.319 C 263.819 189.228 262.924 187.730 263.281 184.558 C 263.477 182.816 263.423 182.799 262.750 184.390 "/></g>
<g fill="#000000FF" stroke="#000000FF">
<path d="M 367.849 196.930 L 367.500 203.360 361.000 206.620 C 357.425 208.413 353.214 210.193 351.642 210.576 C 348.884 211.247 348.829 211.188 350.056 208.885 C 351.216 206.710 351.181 206.621 349.664 207.872 C 347.808 209.403 347.488 211.565 348.980 212.488 C 350.227 213.258 357.785 210.711 362.151 208.049 C 363.993 206.926 365.871 206.006 366.325 206.004 C 366.779 206.002 366.833 210.050 366.446 215.000 C 365.951 221.332 366.070 224.000 366.848 224.000 C 368.931 224.000 371.066 219.247 373.643 208.876 C 375.391 201.843 376.991 197.677 378.611 195.945 C 382.679 191.595 381.244 191.992 376.250 196.598 C 370.433 201.962 368.540 202.274 369.244 197.750 C 369.522 195.963 369.400 193.600 368.974 192.500 C 368.445 191.136 368.087 192.544 367.849 196.930 M 371.778 211.437 C 369.324 218.909 366.768 221.565 367.563 215.816 C 367.815 213.992 368.172 211.375 368.355 210.000 C 368.854 206.246 370.704 202.267 372.185 201.760 C 374.328 201.028 374.200 204.064 371.778 211.437 "/></g>
<g fill="#FFFFFFFF" stroke="#FFFFFFFF">
<path d="M 327.269 195.834 L 320.038 197.388 320.493 200.944 C 320.743 202.900 321.233 208.974 321.582 214.441 L 322.215 224.382 324.159 220.142 C 325.229 217.809 325.835 215.057 325.508 214.025 C 325.132 212.840 325.528 211.804 326.582 211.214 C 327.808 210.528 328.138 209.312 327.827 206.640 C 327.371 202.740 328.283 201.905 329.888 204.750 C 330.714 206.216 331.291 205.561 333.437 200.721 C 334.847 197.543 336.000 194.731 336.000 194.471 C 336.000 193.924 336.551 193.838 327.269 195.834 "/></g>
<g fill="#000000FF" stroke="#000000FF">
<path d="M 223.826 168.871 C 225.363 169.846 225.752 172.978 226.416 189.755 L 226.902 202.009 222.701 204.255 C 218.600 206.447 218.583 206.476 221.994 205.500 C 223.916 204.950 225.858 204.500 226.310 204.500 C 227.469 204.500 211.865 225.361 205.659 232.109 L 200.500 237.717 206.188 232.109 C 211.770 226.603 221.850 214.871 225.198 209.980 C 226.826 207.602 226.897 208.201 226.948 224.610 C 226.976 234.021 226.712 243.821 226.360 246.389 C 225.756 250.798 225.621 250.967 223.930 249.436 C 222.257 247.923 222.176 247.956 222.694 249.940 C 223.347 252.437 226.568 254.508 227.487 253.022 C 228.873 250.778 227.937 177.504 226.430 170.250 C 226.160 168.954 225.228 168.006 224.231 168.015 C 222.909 168.027 222.814 168.229 223.826 168.871 "/></g>
<g fill="#FFFFFFFF" stroke="#FFFFFFFF">
<path d="M 222.641 184.031 C 221.676 185.664 220.168 187.000 219.288 187.000 C 217.920 187.000 217.965 186.695 219.595 184.884 C 221.472 182.799 221.471 182.773 219.500 183.147 C 217.976 183.436 217.352 184.594 216.877 188.013 C 216.535 190.481 216.393 192.658 216.563 192.852 C 216.732 193.046 217.900 192.483 219.158 191.602 C 221.589 189.899 225.000 189.448 225.000 190.829 C 225.000 192.100 219.559 199.978 215.212 205.000 C 212.710 207.891 212.065 209.094 213.409 208.364 C 214.559 207.739 217.903 205.939 220.840 204.364 L 226.180 201.500 225.770 191.763 C 225.544 186.407 225.142 181.809 224.877 181.543 C 224.612 181.278 223.606 182.398 222.641 184.031 "/></g>
<g fill="#000000FF" stroke="#000000FF">
<path d="M 299.769 196.464 L 295.038 201.500 295.019 198.309 C 295.009 196.554 294.555 194.843 294.012 194.507 C 293.388 194.122 293.236 195.482 293.600 198.198 C 294.168 202.448 294.111 202.547 288.919 206.395 C 282.407 211.221 277.260 213.024 275.942 210.940 C 275.441 210.148 275.024 209.973 275.015 210.550 C 274.952 214.864 281.074 214.057 287.961 208.844 C 290.847 206.661 293.455 205.122 293.758 205.425 C 294.061 205.728 293.890 214.644 293.378 225.238 C 292.866 235.832 292.571 244.688 292.723 244.917 C 293.694 246.378 294.097 242.029 294.672 223.904 L 295.318 203.500 300.317 197.741 C 306.542 190.569 306.155 189.667 299.769 196.464 "/></g>
<g fill="#FFFFFFFF" stroke="#FFFFFFFF">
<path d="M 255.750 204.711 C 253.688 207.800 252.000 210.826 252.000 211.436 C 252.000 212.910 257.883 220.000 259.107 220.000 C 259.678 220.000 259.953 215.763 259.784 209.548 L 259.500 199.095 255.750 204.711 "/></g>
<g fill="#000000FF" stroke="#000000FF">
<path d="M 407.168 204.089 C 407.034 207.738 406.539 208.919 404.750 209.850 C 403.513 210.494 401.150 211.895 399.500 212.963 C 395.739 215.398 388.344 218.876 385.306 219.638 C 383.778 220.022 383.000 219.775 383.000 218.908 C 383.000 217.911 382.722 217.878 381.833 218.767 C 380.943 219.657 381.080 220.093 382.408 220.603 C 385.424 221.761 394.832 218.141 403.250 212.585 C 404.763 211.587 406.000 210.960 406.000 211.192 C 406.000 211.424 405.100 216.513 404.000 222.500 C 402.900 228.487 402.061 234.986 402.136 236.943 C 402.233 239.480 402.381 239.783 402.652 238.000 C 402.861 236.625 403.974 229.875 405.126 223.000 L 407.221 210.500 412.360 205.662 C 416.961 201.332 417.065 201.148 413.356 203.912 C 411.077 205.610 408.967 207.000 408.666 207.000 C 408.366 207.000 407.944 205.313 407.728 203.250 C 407.356 199.690 407.328 199.732 407.168 204.089 "/></g>
<g fill="#000000FF" stroke="#000000FF">
<path d="M 276.598 167.500 C 277.827 172.481 280.801 178.510 283.020 180.518 C 284.537 181.891 284.945 183.113 284.501 184.956 L 283.888 187.500 285.501 185.250 C 286.388 184.013 288.143 183.000 289.402 183.000 C 291.847 183.000 295.000 180.198 295.000 178.025 C 295.000 177.297 293.904 177.891 292.548 179.354 C 291.199 180.809 289.699 182.000 289.214 182.000 C 287.690 182.000 286.983 180.728 287.876 179.592 C 289.189 177.924 292.276 167.942 291.668 167.334 C 291.373 167.039 290.605 168.756 289.961 171.149 C 289.317 173.542 288.130 176.778 287.323 178.340 C 285.937 181.022 285.753 181.087 284.012 179.511 C 282.998 178.593 281.160 175.290 279.928 172.171 C 277.332 165.599 275.493 163.019 276.598 167.500 "/></g>
<g fill="#000000FF" stroke="#000000FF">
<path d="M 384.972 186.962 C 385.998 187.611 386.632 190.562 387.064 196.696 C 387.404 201.538 387.754 203.588 387.842 201.250 C 387.995 197.125 388.099 197.000 391.360 197.000 C 393.209 197.000 396.921 196.701 399.610 196.335 C 404.255 195.703 404.425 195.760 403.000 197.490 C 402.175 198.491 403.638 197.803 406.250 195.962 C 412.144 191.809 412.371 190.475 406.750 193.027 C 403.827 194.354 400.237 194.963 395.250 194.978 C 388.128 195.000 388.000 194.955 388.000 192.434 C 388.000 189.253 386.332 185.995 384.715 186.015 C 383.940 186.025 384.034 186.368 384.972 186.962 "/></g>
<g fill="#000000FF" stroke="#000000FF">
<path d="M 192.017 209.657 C 189.003 217.597 187.611 218.774 188.538 212.598 C 189.531 205.975 188.224 204.704 182.445 206.673 C 180.002 207.506 177.750 208.595 177.442 209.094 C 177.134 209.592 175.896 210.036 174.691 210.079 C 173.486 210.122 173.082 210.392 173.794 210.677 C 174.506 210.963 177.519 210.210 180.489 209.005 C 183.458 207.799 186.334 207.088 186.878 207.425 C 187.972 208.101 187.263 214.445 185.768 217.357 C 185.158 218.545 185.167 219.567 185.792 220.192 C 187.155 221.555 191.168 215.774 193.420 209.201 C 196.028 201.591 194.945 201.942 192.017 209.657 "/></g>
<g fill="#000000FF" stroke="#000000FF">
<path d="M 389.488 232.500 C 389.862 235.800 390.867 241.094 391.720 244.265 C 392.998 249.011 393.724 250.144 395.828 250.672 C 398.035 251.226 399.082 250.508 403.511 245.407 C 406.331 242.158 407.390 240.552 405.865 241.837 C 404.284 243.170 402.576 243.856 401.892 243.433 C 401.109 242.949 400.953 243.115 401.443 243.909 C 402.423 245.493 399.241 249.000 396.824 249.000 C 394.338 249.000 391.690 241.881 390.534 232.090 C 390.248 229.665 389.743 227.415 389.411 227.090 C 389.079 226.766 389.113 229.200 389.488 232.500 "/></g>
<g fill="#000000FF" stroke="#000000FF">
<path d="M 413.945 233.461 L 410.500 236.921 414.000 233.968 C 419.306 229.492 420.000 229.958 420.000 238.000 C 420.000 242.000 420.429 245.000 421.000 245.000 C 421.550 245.000 421.994 242.638 421.986 239.750 C 421.959 229.153 419.865 227.515 413.945 233.461 "/></g>
<g fill="#000000FF" stroke="#000000FF">
<path d="M 286.489 214.197 C 285.353 219.607 276.874 236.868 275.122 237.335 C 273.699 237.715 273.710 237.782 275.208 237.884 C 276.979 238.004 281.341 231.505 283.853 225.002 C 287.765 214.881 288.796 211.471 288.029 211.197 C 287.563 211.030 286.870 212.380 286.489 214.197 "/></g>
<g fill="#000000FF" stroke="#000000FF">
<path d="M 392.208 173.000 C 392.980 174.925 394.545 176.921 395.688 177.436 C 397.733 178.359 397.717 178.454 394.632 183.748 L 391.500 189.124 394.499 184.812 C 396.148 182.440 399.073 179.048 400.999 177.273 C 403.278 175.172 403.959 174.038 402.950 174.023 C 402.098 174.010 400.912 174.488 400.315 175.085 C 398.611 176.789 394.663 175.727 393.424 173.232 C 391.538 169.435 390.717 169.278 392.208 173.000 "/></g>
<g fill="#000000FF" stroke="#000000FF">
<path d="M 319.500 170.059 C 316.200 171.132 312.375 171.926 311.000 171.822 C 308.914 171.664 308.807 171.771 310.350 172.462 C 311.378 172.923 314.156 172.844 316.600 172.284 C 321.983 171.053 322.204 172.109 317.268 175.464 C 315.215 176.859 314.009 178.000 314.588 178.000 C 315.167 178.000 317.409 176.504 319.570 174.676 C 321.732 172.848 324.288 171.062 325.250 170.708 C 326.951 170.081 327.755 167.946 326.250 168.054 C 325.838 168.083 322.800 168.986 319.500 170.059 "/></g>
<g fill="#000000FF" stroke="#000000FF">
<path d="M 217.656 193.116 C 213.996 195.047 210.938 194.916 214.029 192.961 C 215.263 192.181 215.218 192.028 213.750 192.015 C 212.662 192.006 212.000 192.756 212.000 194.000 C 212.000 195.100 211.663 195.947 211.250 195.882 C 209.417 195.592 208.000 196.080 208.000 197.000 C 208.000 198.717 211.322 198.078 215.852 195.488 C 221.007 192.541 221.417 192.472 220.564 194.694 C 219.994 196.179 220.166 196.159 221.957 194.539 C 226.193 190.705 223.755 189.899 217.656 193.116 "/></g>
<g fill="#FFFFFFFF" stroke="#FFFFFFFF">
<path d="M 371.090 203.934 C 370.219 204.479 369.541 207.048 369.317 210.658 L 368.955 216.500 371.025 211.585 C 373.341 206.089 373.371 202.506 371.090 203.934 "/></g>
<g fill="#000000FF" stroke="#000000FF">
<path d="M 336.119 222.500 C 337.051 224.944 344.253 237.038 345.081 237.550 C 346.564 238.467 346.138 236.148 344.285 233.215 C 341.972 229.554 335.641 221.247 336.119 222.500 "/></g>
<g fill="#000000FF" stroke="#000000FF">
<path d="M 357.918 183.321 C 358.371 183.773 360.826 184.223 363.371 184.321 C 368.308 184.512 368.716 184.829 366.750 186.947 C 365.750 188.024 365.750 188.152 366.750 187.588 C 367.438 187.200 368.068 187.359 368.150 187.941 C 368.233 188.523 368.345 188.438 368.400 187.750 C 368.455 187.063 369.400 185.825 370.500 185.000 C 372.349 183.614 371.917 183.462 364.796 183.000 C 360.559 182.725 357.464 182.870 357.918 183.321 "/></g>
<g fill="#000000FF" stroke="#000000FF">
<path d="M 212.500 210.637 C 209.189 213.165 207.870 213.563 208.250 211.918 C 208.388 211.323 207.263 212.418 205.750 214.351 C 204.238 216.285 203.000 218.383 203.000 219.013 C 203.000 220.021 204.614 218.673 213.500 210.243 C 214.600 209.200 214.150 209.377 212.500 210.637 "/></g>
<g fill="#FFFFFFFF" stroke="#FFFFFFFF">
<path d="M 221.263 175.395 L 219.135 179.775 222.068 178.668 C 225.013 177.557 225.878 174.931 224.180 172.258 C 223.650 171.423 222.692 172.453 221.263 175.395 "/></g>
<g fill="#000000FF" stroke="#000000FF">
<path d="M 291.638 190.500 C 291.322 191.325 290.036 192.007 288.781 192.015 C 287.527 192.024 285.825 192.506 285.000 193.087 C 283.909 193.855 284.863 193.960 288.500 193.474 C 294.325 192.695 295.000 192.380 295.000 190.441 C 295.000 188.538 292.374 188.584 291.638 190.500 "/></g>
<g fill="#000000FF" stroke="#000000FF">
<path d="M 385.668 173.500 C 385.972 177.900 386.621 181.928 387.110 182.450 C 388.330 183.753 388.155 180.907 386.496 172.500 L 385.116 165.500 385.668 173.500 "/></g>
<g fill="#000000FF" stroke="#000000FF">
<path d="M 213.603 173.819 C 213.661 178.594 213.786 182.500 213.882 182.500 C 214.603 182.500 215.053 167.917 214.370 166.696 C 213.826 165.725 213.537 168.409 213.603 173.819 "/></g>
<g fill="#000000FF" stroke="#000000FF">
<path d="M 395.000 161.126 C 393.625 161.566 391.150 162.260 389.500 162.668 L 386.500 163.409 389.869 163.777 C 393.488 164.172 399.635 162.162 398.306 161.018 C 397.863 160.637 396.375 160.686 395.000 161.126 "/></g>
<g fill="#000000FF" stroke="#000000FF">
<path d="M 300.000 210.724 C 300.825 211.036 303.140 212.575 305.144 214.145 C 309.538 217.588 310.023 217.649 309.921 214.750 C 309.878 213.513 309.609 213.082 309.323 213.794 C 308.944 214.738 307.902 214.400 305.469 212.544 C 303.634 211.145 301.316 210.036 300.317 210.079 C 298.910 210.140 298.838 210.286 300.000 210.724 "/></g>
<g fill="#000000FF" stroke="#000000FF">
<path d="M 219.754 156.579 C 219.366 156.967 216.226 157.268 212.775 157.249 C 207.413 157.219 206.909 157.359 209.313 158.211 C 212.560 159.363 221.280 158.341 220.789 156.867 C 220.607 156.322 220.141 156.192 219.754 156.579 "/></g>
<g fill="#000000FF" stroke="#000000FF">
<path d="M 220.000 179.721 C 216.050 180.429 214.890 182.316 218.726 181.793 C 220.517 181.549 222.110 181.830 222.308 182.424 C 222.504 183.013 223.206 182.483 223.868 181.247 C 225.164 178.825 225.110 178.804 220.000 179.721 "/></g>
<g fill="#000000FF" stroke="#000000FF">
<path d="M 183.000 191.500 C 184.818 193.690 192.000 193.530 192.000 191.300 C 192.000 189.978 191.733 189.867 190.800 190.800 C 189.344 192.256 185.354 192.382 184.500 191.000 C 184.160 190.450 183.403 190.000 182.819 190.000 C 182.148 190.000 182.215 190.554 183.000 191.500 "/></g>
<g fill="#000000FF" stroke="#000000FF">
<path d="M 214.952 202.784 C 212.076 206.398 211.637 207.213 213.756 205.000 C 215.600 203.075 217.647 200.503 218.304 199.284 C 218.962 198.066 217.453 199.641 214.952 202.784 "/></g>
<g fill="#FFFFFFFF" stroke="#FFFFFFFF">
<path d="M 214.765 183.000 C 213.707 185.575 213.306 191.000 214.173 191.000 C 214.884 191.000 215.130 189.257 215.340 182.750 C 215.363 182.053 215.108 182.164 214.765 183.000 "/></g>
</svg>
